<svg preserveAspectRatio="none" width="178" height="386" viewBox="0 0 178 386" fill="none" xmlns="http://www.w3.org/2000/svg">
<path d="M44.9549 0.103227C42.5542 0.287295 40.4462 0.739454 38.6126 1.46393C34.6342 3.03555 31.3823 6.17055 29.3068 10.4347C27.5952 13.9516 26.7203 17.8002 26.0575 24.727C25.8165 27.247 0.372062 334.924 0.170994 337.751C-0.0568176 340.953 -0.0570341 345.316 0.170561 347.28C0.942674 353.944 3.81338 359.1 8.48298 362.211C11.1719 364.001 14.1337 365.06 19.3921 366.111C21.5603 366.545 119.587 384.318 122.47 384.799C128.111 385.744 131.497 385.862 134.473 385.216C139.26 384.179 142.99 381.206 145.314 376.571C146.998 373.218 147.883 369.406 148.559 362.601C148.762 360.571 176.309 43.1836 177.039 34.4718C177.746 26.0445 177.717 22.2217 176.919 18.5089C175.712 12.8923 172.511 8.50216 167.955 6.21527C166.099 5.28345 163.842 4.61583 161.225 4.22376C158.402 3.80095 156.507 3.69603 144.064 3.27364C134.433 2.94665 134.951 2.92998 134.198 3.59219C133.852 3.89547 133.52 4.49802 133.372 5.08964C133.333 5.24653 133.2 6.14793 133.079 7.09274C132.688 10.1411 132.197 11.695 131.107 13.3243C129.988 14.9978 128.658 16.1584 126.966 16.9403C125.929 17.4196 125.048 17.6256 123.715 17.7004C122.617 17.762 81.2419 16.1227 78.5646 15.9113C76.9264 15.7821 76.1477 15.6004 75.0998 15.1026C73.039 14.1239 71.5625 12.3368 70.7894 9.88516C70.3716 8.56063 70.2772 7.54295 70.3077 4.69606C70.3356 2.10914 70.3345 2.09539 70.0691 1.63197C69.6172 0.842533 69.3072 0.723645 67.4261 0.618185C64.3094 0.44332 49.8641 -0.0152261 47.9768 0.000389137C46.9346 0.00967728 45.5748 0.0558026 44.9549 0.103227Z" fill="white"/>
</svg>
